Coordinates
version=1
nRows=11
nColumns=36
inDegrees=yes

Units are S.I. units (second, meters, Newtons, ...)
If the header above contains a line with 'inDegrees', this indicates whether rotational values are in degrees (yes) or radians (no).

endheader
time	pelvis_tilt	pelvis_list	pelvis_rotation	pelvis_tx	pelvis_ty	pelvis_tz	hip_flexion_r	hip_adduction_r	hip_rotation_r	knee_angle_r	knee_angle_r_beta	ankle_angle_r	subtalar_angle_r	mtp_angle_r	hip_flexion_l	hip_adduction_l	hip_rotation_l	knee_angle_l	knee_angle_l_beta	ankle_angle_l	subtalar_angle_l	mtp_angle_l	lumbar_extension	lumbar_bending	lumbar_rotation	arm_flex_r	arm_add_r	arm_rot_r	elbow_flex_r	pro_sup_r	arm_flex_l	arm_add_l	arm_rot_l	elbow_flex_l	pro_sup_l
      0.00000000	      6.74193162	      1.02307109	    172.88050818	      0.31037127	      0.96795889	      0.74929574	     28.99708723	     -2.96765701	     -0.35423869	     41.58363744	      0.72577139	     -6.67060499	    -18.52783393	     -7.93074665	     16.81129619	     -1.08646376	      0.29327842	     21.52692180	      0.37571566	      2.52259463	     -9.42966200	     -7.93074665	    -13.58095947	     -0.52725483	      2.88639374	      5.09421305	    -11.76909370	     -6.77576544	     34.67889795	     90.73121759	      7.92248028	    -11.73429968	     -2.21575839	     27.63604501	     86.93534885
      0.01666670	      7.84516146	     -0.22322093	    174.09291170	      0.30950929	      0.96072477	      0.74596623	     31.15248823	     -4.24810574	     -0.22106408	     38.99656847	      0.68061852	     -6.36477572	    -13.95760080	     -7.82878946	     17.32183863	      0.23832021	      1.75456491	     21.67771463	      0.37834749	      2.54334171	     -7.82321465	     -7.82878946	    -12.10570343	     -2.34417630	      3.11835628	      2.92984531	    -11.35102760	     -7.14387705	     35.97986085	     89.94865717	     10.08245243	    -12.88300343	      0.22803471	     25.15244409	     87.34773965
      0.03333330	      9.00548820	     -0.77035525	    174.62041266	      0.30875711	      0.95749264	      0.74452668	     33.17754859	     -4.63981212	     -0.54858468	     36.08001373	      0.62971503	     -5.45103706	    -12.60769841	     -7.81250665	     17.70943166	      0.69282365	      1.75515208	     22.76513193	      0.39732651	      2.51856320	     -8.44007475	     -7.81250665	    -11.07100530	     -3.08450454	      3.00576468	      1.44023030	    -10.86547908	     -8.15678222	     37.56783227	     90.10449106	     10.99083675	    -13.20606966	      1.00774528	     24.00927966	     87.91720634
      0.05000000	     10.02350643	     -1.24324832	    175.02218712	      0.30880212	      0.95583726	      0.74451270	     34.85407634	     -4.78541162	      0.04944094	     33.10823107	      0.57784764	     -4.53733076	    -12.52506427	     -7.76759668	     18.33405200	      0.92077706	      1.62034148	     24.53339045	      0.42818844	      3.65197374	     -8.61226575	     -7.76759668	    -10.06751764	     -3.71438799	      2.68354149	      0.42419743	    -10.35511537	     -8.84319142	     38.05310876	     90.73160843	     11.70890698	    -13.40218989	      2.08760308	     22.84149815	     89.23121378
      0.06666670	     10.55118289	     -1.33393598	    175.04685581	      0.31072088	      0.95639503	      0.74555824	     35.83333397	     -4.78541720	      0.05323999	     29.91257155	      0.52207286	     -4.65182268	    -11.55994273	     -7.75230613	     18.29639659	      0.87412273	      1.55076223	     26.07177321	      0.45503828	      4.65756642	     -9.04400674	     -7.75230613	     -9.58203799	     -3.72259141	      1.81994570	      0.36957305	    -10.39964818	     -7.87995547	     37.70095645	     90.29630913	     11.79379605	    -13.43438203	      2.00910740	     22.05411526	     88.71914695
      0.08333330	     10.31797266	     -1.50092387	    174.92025714	      0.31380770	      0.95911896	      0.74637035	     35.85303002	     -5.06336551	     -0.44159400	     26.06374305	      0.45489813	     -6.17080854	    -10.36353927	     -7.73720144	     17.31948540	      0.98949032	      1.16154256	     26.92796687	      0.46998168	      5.69215162	     -9.47405438	     -7.73720144	    -10.03229259	     -3.75910817	      1.14740255	      0.33063828	    -10.61194810	     -7.17308952	     37.49758930	     89.82909917	     12.27790052	    -13.47398421	      2.23095951	     21.52695694	     88.46025590
      0.10000000	      9.65298203	     -1.89932173	    174.86932172	      0.31629741	      0.96233479	      0.74541308	     35.16575647	     -5.69024487	     -1.43219184	     21.60915872	      0.37715097	     -8.28481499	     -8.54978617	     -7.72536871	     15.64670706	      1.42601796	      0.75257780	     27.05732452	      0.47223940	      6.48375365	     -9.74575494	     -7.72536871	    -11.00184423	     -3.97922723	      0.51800912	      0.08336948	    -10.87934984	     -6.83551194	     37.55977866	     89.54431586	     13.01552696	    -13.59393771	      2.70454413	     21.02595503	     88.55163979
      0.11666670	      8.96193139	     -2.52661084	    174.98781315	      0.31798195	      0.96322634	      0.74291041	     34.26442794	     -6.54637464	     -2.64652397	     17.05411253	      0.29765041	    -10.17848357	     -6.13758900	     -7.73324956	     13.73334587	      2.10449371	      0.43841747	     26.75473878	      0.46695828	      7.05497044	     -9.93586934	     -7.73324956	    -11.85182804	     -4.44558474	      0.00896804	     -0.51273588	    -11.03574479	     -6.97682453	     37.86168720	     89.55188996	     14.02961502	    -13.81409902	      3.45644520	     20.19307430	     89.11667099
      0.13333330	      8.23823077	     -3.39451611	    175.15462450	      0.31908779	      0.95941640	      0.74026073	     33.33245731	     -7.65407894	     -3.89259754	     13.22191030	      0.23076587	    -12.82382498	     -3.79511042	     -7.72532210	     11.80791350	      3.02551742	      0.23107710	     26.67210320	      0.46551602	      7.47748242	    -10.11998784	     -7.72532210	    -12.44683629	     -5.21650447	     -0.66403561	     -0.86579044	    -10.94993991	     -7.11304892	     37.71533423	     89.31184600	     15.01707938	    -14.15448914	      4.06433342	     19.10719664	     89.23118920
      0.15000000	      7.78388506	     -4.13362900	    175.17966432	      0.31876099	      0.95180458	      0.73802772	     33.11917879	     -8.51774245	     -4.64665502	     10.35005019	      0.18064245	    -14.40985192	     -1.70670991	     -7.71223095	     10.33864681	      3.90422051	      0.50341311	     27.28437408	      0.47620216	      8.17165222	    -10.70245591	     -7.71223095	    -12.55380229	     -5.91829564	     -0.48716922	     -1.48611981	    -11.02087002	     -7.09919172	     37.52576159	     88.78831463	     17.02144405	    -14.12019382	      6.37075829	     15.80508970	     89.74962888
      0.16666670	      7.54340995	     -4.44454600	    175.04014803	      0.31752388	      0.94475517	      0.73560006	     33.27046108	     -8.79159038	     -4.97884316	      8.69183407	      0.15170112	    -15.07785319	     -0.28860909	     -7.68394323	      9.27055618	      4.43219487	      1.07861058	     28.46818991	      0.49686365	      9.10299236	    -11.31704271	     -7.68394323	    -12.54930040	     -6.05362111	     -0.70719572	     -1.53814482	    -11.15436220	     -6.58267323	     37.15204330	     87.60815275	     17.87258253	    -14.16161355	      7.59892004	     13.91862292	     88.74178302
